name GIL06_xslow1.mot
datacolumns 153
datarows 4
range 0.77499998 0.80000001
endheader

                time	           pelvis_tx	           pelvis_ty	           pelvis_tz	         pelvis_tilt	         pelvis_list	     pelvis_rotation	       hip_flexion_r	     hip_adduction_r	      hip_rotation_r	        knee_angle_r	       ankle_angle_r	    subtalar_angle_r	         mtp_angle_r	       hip_flexion_l	     hip_adduction_l	      hip_rotation_l	        knee_angle_l	       ankle_angle_l	    subtalar_angle_l	         mtp_angle_l	    lumbar_extension	      lumbar_bending	     lumbar_rotation	     ground_force_vx	     ground_force_vy	     ground_force_vz	     ground_force_px	     ground_force_py	     ground_force_pz	     ground_force_vx	     ground_force_vy	     ground_force_vz	     ground_force_px	     ground_force_py	     ground_force_pz	     ground_torque_x	     ground_torque_y	     ground_torque_z	     ground_torque_x	     ground_torque_y	     ground_torque_z	    ground_marker_px	    ground_marker_py	    ground_marker_pz	    ground_marker_px	    ground_marker_py	    ground_marker_pz	    ground_marker_px	    ground_marker_py	    ground_marker_pz	    ground_marker_px	    ground_marker_py	    ground_marker_pz	    ground_marker_px	    ground_marker_py	    ground_marker_pz	    ground_marker_px	    ground_marker_py	    ground_marker_pz	    ground_marker_px	    ground_marker_py	    ground_marker_pz	    ground_marker_px	    ground_marker_py	    ground_marker_pz	    ground_marker_px	    ground_marker_py	    ground_marker_pz	    ground_marker_px	    ground_marker_py	    ground_marker_pz	    ground_marker_px	    ground_marker_py	    ground_marker_pz	    ground_marker_px	    ground_marker_py	    ground_marker_pz	    ground_marker_px	    ground_marker_py	    ground_marker_pz	    ground_marker_px	    ground_marker_py	    ground_marker_pz	    ground_marker_px	    ground_marker_py	    ground_marker_pz	    ground_marker_px	    ground_marker_py	    ground_marker_pz	    ground_marker_px	    ground_marker_py	    ground_marker_pz	    ground_marker_px	    ground_marker_py	    ground_marker_pz	    ground_marker_px	    ground_marker_py	    ground_marker_pz	    ground_marker_px	    ground_marker_py	    ground_marker_pz	    ground_marker_px	    ground_marker_py	    ground_marker_pz	    ground_marker_px	    ground_marker_py	    ground_marker_pz	    ground_marker_px	    ground_marker_py	    ground_marker_pz	    ground_marker_px	    ground_marker_py	    ground_marker_pz	    ground_marker_px	    ground_marker_py	    ground_marker_pz	    ground_marker_px	    ground_marker_py	    ground_marker_pz	    ground_marker_px	    ground_marker_py	    ground_marker_pz	    ground_marker_px	    ground_marker_py	    ground_marker_pz	    ground_marker_px	    ground_marker_py	    ground_marker_pz	    ground_marker_px	    ground_marker_py	    ground_marker_pz	    ground_marker_px	    ground_marker_py	    ground_marker_pz	    ground_marker_px	    ground_marker_py	    ground_marker_pz	    ground_marker_px	    ground_marker_py	    ground_marker_pz	    ground_marker_px	    ground_marker_py	    ground_marker_pz	    ground_marker_px	    ground_marker_py	    ground_marker_pz	    ground_marker_px	    ground_marker_py	    ground_marker_pz	    ground_marker_px	    ground_marker_py	    ground_marker_pz	
          0.77499998	          0.43741888	          0.84713399	         -0.28723174	         -3.72983932	         -0.59190631	         -1.05599105	         34.92377090	         -1.34412563	          4.40884972	        -33.58213806	         -0.67563260	          0.00000000	          0.00000000	         -1.72237206	          5.32663822	         -0.82280743	         -0.83408749	          5.01520491	          0.00000000	          0.00000000	        -13.21204662	          0.29141486	          2.11773300	          0.00000000	          0.00000000	          0.00000000	          0.64511670	          0.00000000	         -0.21293446	         12.08786255	        765.78060437	         17.55572146	          0.30342291	          0.00000000	         -0.31158514	          0.00000000	          0.00000000	          0.00000000	          0.00000000	         -2.81199829	          0.00000000	          0.32899368	          0.77083689	         -0.28909606	          0.30905601	          0.77513492	         -0.21024208	          0.31138098	          0.77281010	         -0.36583644	          0.51549178	          0.43412986	         -0.19270054	          0.27740738	          0.42255569	         -0.32824966	          0.49937838	          0.08200750	         -0.20295657	          0.23673490	          0.05842558	         -0.29923442	          0.43741888	          0.84713399	         -0.28723174	          0.43554157	          0.84901118	         -0.16159631	          0.43929619	          0.84525675	         -0.41286716	          0.19314823	          0.91611987	         -0.25546345	          0.19022810	          0.91666341	         -0.31009984	          0.51826239	          0.43947205	         -0.12145423	          0.27681819	          0.41498339	         -0.39934510	          0.52031755	          0.42529473	         -0.25991267	          0.26677334	          0.42054108	         -0.24368711	          0.48842269	          0.08143397	         -0.16605271	          0.21977742	          0.05747798	         -0.33489662	          0.50626642	          0.09343378	         -0.23930608	          0.23422575	          0.07855228	         -0.25922841	          0.23876226	          1.34702158	         -0.29574865	          0.35994154	          1.26826966	         -0.25729662	          0.35836539	          1.26830685	         -0.34003267	          0.34174699	          1.26471364	         -0.31053823	          0.38594481	          1.18612099	         -0.31018099	          0.57550257	          0.65105772	         -0.12869863	          0.47499207	          0.57422662	         -0.35017940	          0.53089064	          0.64798808	         -0.14741781	          0.43076739	          0.59465170	         -0.35998538	          0.55259991	          0.57324088	         -0.15146844	          0.40386766	          0.52801317	         -0.35023600	          0.58797568	          0.22060552	         -0.16736336	          0.22531624	          0.15797764	         -0.41102916	          0.54461187	          0.23009364	         -0.18003580	          0.22823285	          0.17371409	         -0.36566368	          0.60275698	          0.06478091	         -0.18801075	          0.33686924	          0.04671779	         -0.31414467	
          0.78333330	          0.44093433	          0.84648860	         -0.28726211	         -3.80045033	         -0.57965684	         -0.83143872	         34.81423950	         -1.18141341	          4.24639225	        -31.18800735	         -1.18175435	          0.00000000	          0.00000000	         -1.85396194	          5.35461426	         -0.73446739	         -0.94329178	          5.23189592	          0.00000000	          0.00000000	        -13.00547123	         -0.03445617	          1.99936843	          0.00000000	          0.00000000	          0.00000000	          0.64620398	          0.00000000	         -0.21252695	         13.32888920	        769.42090379	         17.64642479	          0.30498553	          0.00000000	         -0.31133438	          0.00000000	          0.00000000	          0.00000000	          0.00000000	         -2.94635693	          0.00000000	          0.33240020	          0.77035296	         -0.28880841	          0.31276652	          0.77455467	         -0.20988761	          0.31451082	          0.77242494	         -0.36549237	          0.51790369	          0.43333390	         -0.19470176	          0.27944195	          0.42243454	         -0.32808042	          0.51552165	          0.08022762	         -0.20233136	          0.23689120	          0.05847270	         -0.29914552	          0.44093433	          0.84648860	         -0.28726211	          0.43952587	          0.84820819	         -0.16161875	          0.44234279	          0.84476894	         -0.41290548	          0.19683202	          0.91570938	         -0.25451946	          0.19384849	          0.91637719	         -0.30925038	          0.52088434	          0.43829745	         -0.12343656	          0.27867043	          0.41491181	         -0.39917937	          0.52101713	          0.42406031	         -0.26197487	          0.26543254	          0.42549622	         -0.24139878	          0.50435919	          0.07950693	         -0.16549213	          0.21989875	          0.05762526	         -0.33479360	          0.52255303	          0.09159225	         -0.23865749	          0.23441321	          0.07857758	         -0.25909227	          0.24241057	          1.34626174	         -0.29536015	          0.36402601	          1.26791108	         -0.25772205	          0.36218771	          1.26754963	         -0.33963478	          0.34553960	          1.26410258	         -0.31033364	          0.39006460	          1.18557549	         -0.30989075	          0.57842696	          0.64872873	         -0.13006027	          0.47751459	          0.57342720	         -0.35034409	          0.53401417	          0.64609396	         -0.14853340	          0.43452585	          0.59447521	         -0.36010280	          0.55498856	          0.57126689	         -0.15297565	          0.40490788	          0.52682418	         -0.34924155	          0.59870017	          0.22237267	         -0.16717510	          0.22588556	          0.15811603	         -0.41094798	          0.55553150	          0.23004746	         -0.18016697	          0.22878407	          0.17373794	         -0.36549053	          0.61933666	          0.06621911	         -0.18670861	          0.33690056	          0.04664725	         -0.31372625	
          0.79166669	          0.44452479	          0.84580398	         -0.28726900	         -3.87135410	         -0.55008036	         -0.60970026	         34.66109467	         -1.03196883	          4.12921095	        -28.77594757	         -1.70256674	          0.00000000	          0.00000000	         -1.99227333	          5.40044880	         -0.64953023	         -1.05163884	          5.46652937	          0.00000000	          0.00000000	        -12.82894897	         -0.07802250	          2.13907576	          0.00000000	          0.00000000	          0.00000000	          0.64727899	          0.00000000	         -0.21210941	         14.70055578	        774.00916344	         17.89447657	          0.30652356	          0.00000000	         -0.31111411	          0.00000000	          0.00000000	          0.00000000	          0.00000000	         -3.05485254	          0.00000000	          0.33588195	          0.76982784	         -0.28854257	          0.31654304	          0.77391303	         -0.20954731	          0.31772736	          0.77202308	         -0.36516047	          0.52005333	          0.43241566	         -0.19668655	          0.28151730	          0.42230201	         -0.32790959	          0.53133154	          0.07885786	         -0.20157452	          0.23704441	          0.05850812	         -0.29905853	          0.44452479	          0.84580398	         -0.28726900	          0.44356838	          0.84733021	         -0.16160637	          0.44548121	          0.84427774	         -0.41293159	          0.20057580	          0.91525316	         -0.25354621	          0.19751348	          0.91606921	         -0.30835938	          0.52327591	          0.43702045	         -0.12540780	          0.28056532	          0.41482708	         -0.39901137	          0.52062172	          0.42216760	         -0.26284021	          0.26486424	          0.43051177	         -0.23968162	          0.51996529	          0.07798690	         -0.16480090	          0.22001897	          0.05776339	         -0.33469319	          0.53985190	          0.08985803	         -0.23768519	          0.23459868	          0.07854947	         -0.25894412	          0.24597394	          1.34567595	         -0.29509208	          0.36789712	          1.26743650	         -0.25800073	          0.36555052	          1.26719224	         -0.34000811	          0.34943512	          1.26351833	         -0.31007844	          0.39371118	          1.18520892	         -0.31050363	          0.58129561	          0.64615995	         -0.13152565	          0.48008558	          0.57261503	         -0.35050884	          0.53694642	          0.64415526	         -0.14974536	          0.43894064	          0.59458655	         -0.36067650	          0.55692363	          0.56906116	         -0.15416636	          0.40659183	          0.52549666	         -0.34838185	          0.60902053	          0.22429572	         -0.16690871	          0.22646455	          0.15824492	         -0.41088718	          0.56756300	          0.23041409	         -0.18058328	          0.22932154	          0.17360495	         -0.36532348	          0.63545966	          0.06802563	         -0.18517663	          0.33693054	          0.04658326	         -0.31329852	
          0.80000001	          0.44818434	          0.84508526	         -0.28724635	         -3.94197178	         -0.50239569	         -0.39472178	         34.47026062	         -0.89653897	          4.06192255	        -26.36467552	         -2.22672153	          0.00000000	          0.00000000	         -2.13749599	          5.46374464	         -0.57242894	         -1.16203511	          5.72088289	          0.00000000	          0.00000000	        -12.87309837	          0.68387014	          1.38333929	          0.00000000	          0.00000000	          0.00000000	          0.64841193	          0.00000000	         -0.21168567	         16.24773596	        779.55489232	         18.36992353	          0.30806390	          0.00000000	         -0.31093964	          0.00000000	          0.00000000	          0.00000000	          0.00000000	         -3.13046973	          0.00000000	          0.33943909	          0.76926130	         -0.28829587	          0.32037473	          0.77321398	         -0.20922385	          0.32103086	          0.77160740	         -0.36484328	          0.52197891	          0.43139431	         -0.19863302	          0.28363466	          0.42215699	         -0.32774207	          0.54675120	          0.07789471	         -0.20071046	          0.23717886	          0.05853751	         -0.29897481	          0.44818434	          0.84508526	         -0.28724635	          0.44765443	          0.84638286	         -0.16155577	          0.44871426	          0.84378767	         -0.41293696	          0.20438974	          0.91475511	         -0.25254652	          0.20122188	          0.91573238	         -0.30742392	          0.52547395	          0.43566439	         -0.12734625	          0.28250352	          0.41472891	         -0.39884615	          0.52147555	          0.41936558	         -0.26368934	          0.27392381	          0.42058414	         -0.24039191	          0.53519815	          0.07686935	         -0.16399907	          0.22013547	          0.05789630	         -0.33460292	          0.55550730	          0.08903302	         -0.23675551	          0.23508653	          0.07838292	         -0.25883159	          0.24993442	          1.34509706	         -0.29472038	          0.37143177	          1.26641107	         -0.25744972	          0.37017003	          1.26705444	         -0.33844894	          0.35335833	          1.26296473	         -0.30973363	          0.39794356	          1.18475640	         -0.30999202	          0.58412266	          0.64336610	         -0.13308679	          0.48271561	          0.57179302	         -0.35067961	          0.53955358	          0.64137501	         -0.15133208	          0.43907893	          0.59385514	         -0.35909471	          0.55891126	          0.56656677	         -0.15553345	          0.40992868	          0.52516949	         -0.34907079	          0.61891854	          0.22637063	         -0.16660811	          0.22708425	          0.15835965	         -0.41083634	          0.57818693	          0.23094600	         -0.18040472	          0.23012643	          0.17356902	         -0.36503163	          0.65108550	          0.07018983	         -0.18346518	          0.33696082	          0.04652716	         -0.31288922	
